<svg width="42" height="36" viewBox="0 0 42 36" fill="none" xmlns="http://www.w3.org/2000/svg">
<path fill-rule="evenodd" clip-rule="evenodd" d="M27.3335 1.44014C29.4377 2.27764 30.0815 5.1943 30.9419 6.1318C31.8023 7.0693 33.0335 7.38805 33.7148 7.38805C37.3356 7.38805 40.271 10.3235 40.271 13.9422V26.0151C40.271 30.8693 36.3335 34.8068 31.4794 34.8068H10.521C5.66479 34.8068 1.72937 30.8693 1.72937 26.0151V13.9422C1.72937 10.3235 4.66479 7.38805 8.28562 7.38805C8.96479 7.38805 10.196 7.0693 11.0585 6.1318C11.919 5.1943 12.5606 2.27764 14.6648 1.44014C16.771 0.602637 25.2294 0.602637 27.3335 1.44014Z" stroke="white" stroke-opacity="0.8" stroke-width="1.5" stroke-linecap="round" stroke-linejoin="round"/>
<path d="M32.449 12.7917H32.4677" stroke="white" stroke-opacity="0.8" stroke-width="2" stroke-linecap="round" stroke-linejoin="round"/>
<path fill-rule="evenodd" clip-rule="evenodd" d="M27.6226 20.35C27.6226 16.6916 24.658 13.7271 20.9997 13.7271C17.3414 13.7271 14.3768 16.6916 14.3768 20.35C14.3768 24.0083 17.3414 26.9729 20.9997 26.9729C24.658 26.9729 27.6226 24.0083 27.6226 20.35Z" stroke="white" stroke-opacity="0.8" stroke-width="1.5" stroke-linecap="round" stroke-linejoin="round"/>
</svg>
