<svg width="30" height="30" viewBox="0 0 30 30" fill="none" xmlns="http://www.w3.org/2000/svg">
<rect width="30" height="30" fill="#F6F6F6"/>
<path d="M24.1561 11.8352C24.1561 11.8352 23.4774 20.254 23.0836 23.8002C22.8961 25.494 21.8499 26.4865 20.1361 26.5177C16.8749 26.5765 13.6099 26.5802 10.3499 26.5115C8.70111 26.4777 7.67236 25.4727 7.48861 23.809C7.09236 20.2315 6.41736 11.8352 6.41736 11.8352" stroke="#3A3A55" stroke-width="1.5" stroke-linecap="round" stroke-linejoin="round"/>
<path d="M25.8852 7.79956H4.68774" stroke="#3A3A55" stroke-width="1.5" stroke-linecap="round" stroke-linejoin="round"/>
<path d="M21.8008 7.7996C20.8195 7.7996 19.9745 7.10585 19.782 6.1446L19.4783 4.6246C19.2908 3.92335 18.6558 3.43835 17.932 3.43835H12.6408C11.917 3.43835 11.282 3.92335 11.0945 4.6246L10.7908 6.1446C10.5983 7.10585 9.75325 7.7996 8.772 7.7996" stroke="#3A3A55" stroke-width="1.5" stroke-linecap="round" stroke-linejoin="round"/>
</svg>
