<svg width="51" height="50" viewBox="0 0 51 50" fill="none" xmlns="http://www.w3.org/2000/svg">
<path fill-rule="evenodd" clip-rule="evenodd" d="M0.745605 25.0145C0.745605 11.2156 11.9666 0 25.7456 0C39.5246 0 50.7456 11.2156 50.7456 25.0145C50.7456 38.7844 39.5246 50 25.7456 50C11.9666 50 0.745605 38.7844 0.745605 25.0145ZM34.9155 27.5448C35.1809 27.2795 35.5188 26.8695 35.5912 26.773C35.9773 26.2665 36.1703 25.6394 36.1703 25.0147C36.1703 24.3128 35.9531 23.6615 35.5429 23.1309C35.5093 23.0973 35.4434 23.0256 35.3576 22.9322C35.1971 22.7575 34.9667 22.5068 34.7466 22.2867C32.7678 20.1642 27.6037 16.691 24.901 15.6297C24.4908 15.4633 23.4531 15.0991 22.8981 15.075C22.3672 15.075 21.8605 15.1955 21.3778 15.4367C20.7746 15.7744 20.2919 16.3051 20.0265 16.9322C19.8576 17.3663 19.5921 18.6688 19.5921 18.6929C19.3267 20.116 19.1819 22.4314 19.1819 24.9881C19.1819 27.4266 19.3267 29.6432 19.5439 31.0904C19.5498 31.0964 19.5706 31.1999 19.6028 31.3607C19.7009 31.8495 19.9051 32.8678 20.123 33.2853C20.6539 34.2983 21.6915 34.9254 22.8016 34.9254H22.8981C23.622 34.9013 25.1423 34.2742 25.1423 34.2501C27.7002 33.1888 32.7437 29.8844 34.7707 27.6895L34.9155 27.5448Z" fill="#8C84E2"/>
</svg>
