<svg width="27" height="25" viewBox="0 0 27 25" fill="none" xmlns="http://www.w3.org/2000/svg">
<path fill-rule="evenodd" clip-rule="evenodd" d="M25.3609 16.8695H20.3009C17.9297 16.8695 15.9997 14.9407 15.9984 12.5707C15.9984 10.1982 17.9284 8.26822 20.3009 8.26697H25.3609C25.8784 8.26697 26.2984 8.68697 26.2984 9.20447C26.2984 9.72197 25.8784 10.142 25.3609 10.142H20.3009C18.9622 10.1432 17.8734 11.232 17.8734 12.5695C17.8734 13.9057 18.9634 14.9945 20.3009 14.9945H25.3609C25.8784 14.9945 26.2984 15.4145 26.2984 15.932C26.2984 16.4495 25.8784 16.8695 25.3609 16.8695Z" fill="#3A3A55"/>
<path fill-rule="evenodd" clip-rule="evenodd" d="M20.8729 13.4294H20.4829C19.9654 13.4294 19.5454 13.0094 19.5454 12.4919C19.5454 11.9744 19.9654 11.5544 20.4829 11.5544H20.8729C21.3904 11.5544 21.8104 11.9744 21.8104 12.4919C21.8104 13.0094 21.3904 13.4294 20.8729 13.4294Z" fill="#3A3A55"/>
<mask id="mask0" style="mask-type:alpha" maskUnits="userSpaceOnUse" x="0" y="0" width="27" height="25">
<path fill-rule="evenodd" clip-rule="evenodd" d="M0.5 0.75H26.2982V24.7161H0.5V0.75Z" fill="white"/>
</mask>
<g mask="url(#mask0)">
<path fill-rule="evenodd" clip-rule="evenodd" d="M7.99698 2.625C4.89698 2.625 2.37448 5.1475 2.37448 8.2475V17.2188C2.37448 20.3188 4.89698 22.8413 7.99698 22.8413H18.802C21.902 22.8413 24.4232 20.3188 24.4232 17.2188V8.2475C24.4232 5.1475 21.902 2.625 18.802 2.625H7.99698ZM18.802 24.7163H7.99698C3.86323 24.7163 0.499481 21.3525 0.499481 17.2188V8.2475C0.499481 4.1125 3.86323 0.75 7.99698 0.75H18.802C22.9357 0.75 26.2982 4.1125 26.2982 8.2475V17.2188C26.2982 21.3525 22.9357 24.7163 18.802 24.7163Z" fill="#3A3A55"/>
</g>
<path fill-rule="evenodd" clip-rule="evenodd" d="M13.8558 8.29761H7.10702C6.58953 8.29761 6.16953 7.87761 6.16953 7.36011C6.16953 6.84261 6.58953 6.42261 7.10702 6.42261H13.8558C14.3733 6.42261 14.7933 6.84261 14.7933 7.36011C14.7933 7.87761 14.3733 8.29761 13.8558 8.29761Z" fill="#3A3A55"/>
</svg>
